<svg width="80" height="80" viewBox="0 0 80 80" fill="none" xmlns="http://www.w3.org/2000/svg">
<path fill-rule="evenodd" clip-rule="evenodd" d="M18.7948 21H34.0664L41.5273 34.1453L26.9053 59.8183H11.6312L4 46.5083L18.7948 21ZM19.4196 24.3181L6.54553 46.5147L12.2668 56.4934L24.9961 34.1434L19.4196 24.3181ZM26.9053 35.2469L14.1668 57.6131H25.6235L38.3621 35.2469H26.9053ZM38.3653 33.0417H26.9064L21.3235 23.2052H32.7823L38.3653 33.0417Z" fill="#7FEE64"/>
<path fill-rule="evenodd" clip-rule="evenodd" d="M76.5985 46.6753L68.9625 59.9011L53.8481 59.7896L38.9253 34.29L46.5625 21.0623L61.9051 21.1085L76.5985 46.6753ZM73.4124 45.5574L60.6265 23.3098L49.1242 23.2751L62.1154 45.4741L73.4124 45.5574ZM60.2051 46.5758L47.2045 24.3607L41.4759 34.2825L54.4766 56.4978L60.2051 46.5758ZM56.3849 57.6028L62.1142 47.6793L73.4242 47.7627L67.6949 57.6861L56.3849 57.6028Z" fill="#7FEE64"/>
</svg>